<svg xmlns="http://www.w3.org/2000/svg" version="1.1" xmlns:xlink="http://www.w3.org/1999/xlink" xmlns:svgjs="http://svgjs.com/svgjs" width="1440" height="560" preserveAspectRatio="none" viewBox="0 0 1440 560">
    <g mask="url(&quot;#SvgjsMask1006&quot;)" fill="none">
        <path d="M-101.25 556.37L-101.25 556.37" stroke="rgba(42, 17, 68, 1)" stroke-width="1.5"></path>
        <path d="M-101.25 556.37L-100.44 702.49" stroke="rgba(42, 17, 68, 1)" stroke-width="1.5"></path>
        <path d="M-101.25 556.37L91.21 493.99" stroke="rgba(42, 17, 68, 1)" stroke-width="1.5"></path>
        <path d="M-100.44 702.49L-100.44 702.49" stroke="rgba(42, 17, 68, 1)" stroke-width="1.5"></path>
        <path d="M-100.44 702.49L91.21 493.99" stroke="rgba(42, 17, 68, 1)" stroke-width="1.5"></path>
        <path d="M-100.44 702.49L248.78 673.89" stroke="rgba(42, 17, 68, 1)" stroke-width="1.5"></path>
        <path d="M-100.44 702.49L239.4 532.88" stroke="rgba(42, 17, 68, 1)" stroke-width="1.5"></path>
        <path d="M-100.44 702.49L356.73 660.89" stroke="rgba(42, 17, 68, 1)" stroke-width="1.5"></path>
        <path d="M91.21 493.99L91.21 493.99" stroke="rgba(42, 17, 68, 1)" stroke-width="1.5"></path>
        <path d="M91.21 493.99L239.4 532.88" stroke="rgba(42, 17, 68, 1)" stroke-width="1.5"></path>
        <path d="M91.21 493.99L249.74 372.57" stroke="rgba(42, 17, 68, 1)" stroke-width="1.5"></path>
        <path d="M91.21 493.99L248.78 673.89" stroke="rgba(42, 17, 68, 1)" stroke-width="1.5"></path>
        <path d="M91.21 493.99L382.49 511.78" stroke="rgba(42, 17, 68, 1)" stroke-width="1.5"></path>
        <path d="M249.74 372.57L249.74 372.57" stroke="rgba(42, 17, 68, 1)" stroke-width="1.5"></path>
        <path d="M249.74 372.57L409.73 378.96" stroke="rgba(42, 17, 68, 1)" stroke-width="1.5"></path>
        <path d="M249.74 372.57L239.4 532.88" stroke="rgba(42, 17, 68, 1)" stroke-width="1.5"></path>
        <path d="M249.74 372.57L382.49 511.78" stroke="rgba(42, 17, 68, 1)" stroke-width="1.5"></path>
        <path d="M249.74 372.57L540.5 342.09" stroke="rgba(42, 17, 68, 1)" stroke-width="1.5"></path>
        <path d="M239.4 532.88L239.4 532.88" stroke="rgba(42, 17, 68, 1)" stroke-width="1.5"></path>
        <path d="M239.4 532.88L248.78 673.89" stroke="rgba(42, 17, 68, 1)" stroke-width="1.5"></path>
        <path d="M239.4 532.88L382.49 511.78" stroke="rgba(42, 17, 68, 1)" stroke-width="1.5"></path>
        <path d="M239.4 532.88L356.73 660.89" stroke="rgba(42, 17, 68, 1)" stroke-width="1.5"></path>
        <path d="M248.78 673.89L248.78 673.89" stroke="rgba(42, 17, 68, 1)" stroke-width="1.5"></path>
        <path d="M248.78 673.89L356.73 660.89" stroke="rgba(42, 17, 68, 1)" stroke-width="1.5"></path>
        <path d="M248.78 673.89L382.49 511.78" stroke="rgba(42, 17, 68, 1)" stroke-width="1.5"></path>
        <path d="M409.73 378.96L409.73 378.96" stroke="rgba(42, 17, 68, 1)" stroke-width="1.5"></path>
        <path d="M409.73 378.96L382.49 511.78" stroke="rgba(42, 17, 68, 1)" stroke-width="1.5"></path>
        <path d="M409.73 378.96L540.5 342.09" stroke="rgba(42, 17, 68, 1)" stroke-width="1.5"></path>
        <path d="M382.49 511.78L382.49 511.78" stroke="rgba(42, 17, 68, 1)" stroke-width="1.5"></path>
        <path d="M382.49 511.78L356.73 660.89" stroke="rgba(42, 17, 68, 1)" stroke-width="1.5"></path>
        <path d="M356.73 660.89L356.73 660.89" stroke="rgba(42, 17, 68, 1)" stroke-width="1.5"></path>
        <path d="M356.73 660.89L532.55 680.06" stroke="rgba(42, 17, 68, 1)" stroke-width="1.5"></path>
        <path d="M356.73 660.89L409.73 378.96" stroke="rgba(42, 17, 68, 1)" stroke-width="1.5"></path>
        <path d="M540.5 342.09L540.5 342.09" stroke="rgba(42, 17, 68, 1)" stroke-width="1.5"></path>
        <path d="M532.55 680.06L532.55 680.06" stroke="rgba(42, 17, 68, 1)" stroke-width="1.5"></path>
        <path d="M532.55 680.06L649.49 694.98" stroke="rgba(42, 17, 68, 1)" stroke-width="1.5"></path>
        <path d="M532.55 680.06L648.22 498.24" stroke="rgba(42, 17, 68, 1)" stroke-width="1.5"></path>
        <path d="M532.55 680.06L382.49 511.78" stroke="rgba(42, 17, 68, 1)" stroke-width="1.5"></path>
        <path d="M691.25 354.11L691.25 354.11" stroke="rgba(42, 17, 68, 1)" stroke-width="1.5"></path>
        <path d="M691.25 354.11L794.71 393.05" stroke="rgba(42, 17, 68, 1)" stroke-width="1.5"></path>
        <path d="M691.25 354.11L648.22 498.24" stroke="rgba(42, 17, 68, 1)" stroke-width="1.5"></path>
        <path d="M691.25 354.11L540.5 342.09" stroke="rgba(42, 17, 68, 1)" stroke-width="1.5"></path>
        <path d="M691.25 354.11L813.88 493.54" stroke="rgba(42, 17, 68, 1)" stroke-width="1.5"></path>
        <path d="M691.25 354.11L813.18 195.28" stroke="rgba(42, 17, 68, 1)" stroke-width="1.5"></path>
        <path d="M648.22 498.24L648.22 498.24" stroke="rgba(42, 17, 68, 1)" stroke-width="1.5"></path>
        <path d="M648.22 498.24L813.88 493.54" stroke="rgba(42, 17, 68, 1)" stroke-width="1.5"></path>
        <path d="M649.49 694.98L649.49 694.98" stroke="rgba(42, 17, 68, 1)" stroke-width="1.5"></path>
        <path d="M649.49 694.98L840.18 661.75" stroke="rgba(42, 17, 68, 1)" stroke-width="1.5"></path>
        <path d="M649.49 694.98L648.22 498.24" stroke="rgba(42, 17, 68, 1)" stroke-width="1.5"></path>
        <path d="M649.49 694.98L813.88 493.54" stroke="rgba(42, 17, 68, 1)" stroke-width="1.5"></path>
        <path d="M649.49 694.98L939.03 694.01" stroke="rgba(42, 17, 68, 1)" stroke-width="1.5"></path>
        <path d="M649.49 694.98L356.73 660.89" stroke="rgba(42, 17, 68, 1)" stroke-width="1.5"></path>
        <path d="M813.18 195.28L813.18 195.28" stroke="rgba(42, 17, 68, 1)" stroke-width="1.5"></path>
        <path d="M813.18 195.28L940.69 62.09" stroke="rgba(42, 17, 68, 1)" stroke-width="1.5"></path>
        <path d="M813.18 195.28L993.14 261.54" stroke="rgba(42, 17, 68, 1)" stroke-width="1.5"></path>
        <path d="M813.18 195.28L794.71 393.05" stroke="rgba(42, 17, 68, 1)" stroke-width="1.5"></path>
        <path d="M794.71 393.05L794.71 393.05" stroke="rgba(42, 17, 68, 1)" stroke-width="1.5"></path>
        <path d="M794.71 393.05L813.88 493.54" stroke="rgba(42, 17, 68, 1)" stroke-width="1.5"></path>
        <path d="M794.71 393.05L969.36 350.86" stroke="rgba(42, 17, 68, 1)" stroke-width="1.5"></path>
        <path d="M794.71 393.05L648.22 498.24" stroke="rgba(42, 17, 68, 1)" stroke-width="1.5"></path>
        <path d="M794.71 393.05L993.14 261.54" stroke="rgba(42, 17, 68, 1)" stroke-width="1.5"></path>
        <path d="M813.88 493.54L813.88 493.54" stroke="rgba(42, 17, 68, 1)" stroke-width="1.5"></path>
        <path d="M813.88 493.54L840.18 661.75" stroke="rgba(42, 17, 68, 1)" stroke-width="1.5"></path>
        <path d="M813.88 493.54L1000.45 513.28" stroke="rgba(42, 17, 68, 1)" stroke-width="1.5"></path>
        <path d="M813.88 493.54L969.36 350.86" stroke="rgba(42, 17, 68, 1)" stroke-width="1.5"></path>
        <path d="M840.18 661.75L840.18 661.75" stroke="rgba(42, 17, 68, 1)" stroke-width="1.5"></path>
        <path d="M840.18 661.75L939.03 694.01" stroke="rgba(42, 17, 68, 1)" stroke-width="1.5"></path>
        <path d="M1007.59 -99.95L1007.59 -99.95" stroke="rgba(42, 17, 68, 1)" stroke-width="1.5"></path>
        <path d="M1007.59 -99.95L1147.69 -37.57" stroke="rgba(42, 17, 68, 1)" stroke-width="1.5"></path>
        <path d="M1007.59 -99.95L940.69 62.09" stroke="rgba(42, 17, 68, 1)" stroke-width="1.5"></path>
        <path d="M1007.59 -99.95L1152.49 84.13" stroke="rgba(42, 17, 68, 1)" stroke-width="1.5"></path>
        <path d="M1007.59 -99.95L1256.34 -65.1" stroke="rgba(42, 17, 68, 1)" stroke-width="1.5"></path>
        <path d="M940.69 62.09L940.69 62.09" stroke="rgba(42, 17, 68, 1)" stroke-width="1.5"></path>
        <path d="M940.69 62.09L993.14 261.54" stroke="rgba(42, 17, 68, 1)" stroke-width="1.5"></path>
        <path d="M940.69 62.09L1152.49 84.13" stroke="rgba(42, 17, 68, 1)" stroke-width="1.5"></path>
        <path d="M940.69 62.09L1147.69 -37.57" stroke="rgba(42, 17, 68, 1)" stroke-width="1.5"></path>
        <path d="M940.69 62.09L1117.06 250.73" stroke="rgba(42, 17, 68, 1)" stroke-width="1.5"></path>
        <path d="M993.14 261.54L993.14 261.54" stroke="rgba(42, 17, 68, 1)" stroke-width="1.5"></path>
        <path d="M993.14 261.54L969.36 350.86" stroke="rgba(42, 17, 68, 1)" stroke-width="1.5"></path>
        <path d="M993.14 261.54L1117.06 250.73" stroke="rgba(42, 17, 68, 1)" stroke-width="1.5"></path>
        <path d="M993.14 261.54L1158.47 357.86" stroke="rgba(42, 17, 68, 1)" stroke-width="1.5"></path>
        <path d="M969.36 350.86L969.36 350.86" stroke="rgba(42, 17, 68, 1)" stroke-width="1.5"></path>
        <path d="M969.36 350.86L1000.45 513.28" stroke="rgba(42, 17, 68, 1)" stroke-width="1.5"></path>
        <path d="M969.36 350.86L1117.06 250.73" stroke="rgba(42, 17, 68, 1)" stroke-width="1.5"></path>
        <path d="M969.36 350.86L1158.47 357.86" stroke="rgba(42, 17, 68, 1)" stroke-width="1.5"></path>
        <path d="M1000.45 513.28L1000.45 513.28" stroke="rgba(42, 17, 68, 1)" stroke-width="1.5"></path>
        <path d="M1000.45 513.28L1101.67 649.67" stroke="rgba(42, 17, 68, 1)" stroke-width="1.5"></path>
        <path d="M1000.45 513.28L939.03 694.01" stroke="rgba(42, 17, 68, 1)" stroke-width="1.5"></path>
        <path d="M1000.45 513.28L840.18 661.75" stroke="rgba(42, 17, 68, 1)" stroke-width="1.5"></path>
        <path d="M939.03 694.01L939.03 694.01" stroke="rgba(42, 17, 68, 1)" stroke-width="1.5"></path>
        <path d="M939.03 694.01L1101.67 649.67" stroke="rgba(42, 17, 68, 1)" stroke-width="1.5"></path>
        <path d="M939.03 694.01L813.88 493.54" stroke="rgba(42, 17, 68, 1)" stroke-width="1.5"></path>
        <path d="M1147.69 -37.57L1147.69 -37.57" stroke="rgba(42, 17, 68, 1)" stroke-width="1.5"></path>
        <path d="M1147.69 -37.57L1256.34 -65.1" stroke="rgba(42, 17, 68, 1)" stroke-width="1.5"></path>
        <path d="M1147.69 -37.57L1152.49 84.13" stroke="rgba(42, 17, 68, 1)" stroke-width="1.5"></path>
        <path d="M1147.69 -37.57L1276.52 88.37" stroke="rgba(42, 17, 68, 1)" stroke-width="1.5"></path>
        <path d="M1152.49 84.13L1152.49 84.13" stroke="rgba(42, 17, 68, 1)" stroke-width="1.5"></path>
        <path d="M1152.49 84.13L1276.52 88.37" stroke="rgba(42, 17, 68, 1)" stroke-width="1.5"></path>
        <path d="M1152.49 84.13L1117.06 250.73" stroke="rgba(42, 17, 68, 1)" stroke-width="1.5"></path>
        <path d="M1152.49 84.13L1262.27 215.76" stroke="rgba(42, 17, 68, 1)" stroke-width="1.5"></path>
        <path d="M1152.49 84.13L1256.34 -65.1" stroke="rgba(42, 17, 68, 1)" stroke-width="1.5"></path>
        <path d="M1117.06 250.73L1117.06 250.73" stroke="rgba(42, 17, 68, 1)" stroke-width="1.5"></path>
        <path d="M1117.06 250.73L1158.47 357.86" stroke="rgba(42, 17, 68, 1)" stroke-width="1.5"></path>
        <path d="M1158.47 357.86L1158.47 357.86" stroke="rgba(42, 17, 68, 1)" stroke-width="1.5"></path>
        <path d="M1158.47 357.86L1262.97 495.47" stroke="rgba(42, 17, 68, 1)" stroke-width="1.5"></path>
        <path d="M1101.67 649.67L1101.67 649.67" stroke="rgba(42, 17, 68, 1)" stroke-width="1.5"></path>
        <path d="M1101.67 649.67L1289.07 679.62" stroke="rgba(42, 17, 68, 1)" stroke-width="1.5"></path>
        <path d="M1101.67 649.67L1262.97 495.47" stroke="rgba(42, 17, 68, 1)" stroke-width="1.5"></path>
        <path d="M1256.34 -65.1L1256.34 -65.1" stroke="rgba(42, 17, 68, 1)" stroke-width="1.5"></path>
        <path d="M1256.34 -65.1L1276.52 88.37" stroke="rgba(42, 17, 68, 1)" stroke-width="1.5"></path>
        <path d="M1256.34 -65.1L1407.18 78.85" stroke="rgba(42, 17, 68, 1)" stroke-width="1.5"></path>
        <path d="M1276.52 88.37L1276.52 88.37" stroke="rgba(42, 17, 68, 1)" stroke-width="1.5"></path>
        <path d="M1276.52 88.37L1262.27 215.76" stroke="rgba(42, 17, 68, 1)" stroke-width="1.5"></path>
        <path d="M1276.52 88.37L1407.18 78.85" stroke="rgba(42, 17, 68, 1)" stroke-width="1.5"></path>
        <path d="M1262.27 215.76L1262.27 215.76" stroke="rgba(42, 17, 68, 1)" stroke-width="1.5"></path>
        <path d="M1262.27 215.76L1117.06 250.73" stroke="rgba(42, 17, 68, 1)" stroke-width="1.5"></path>
        <path d="M1262.27 215.76L1158.47 357.86" stroke="rgba(42, 17, 68, 1)" stroke-width="1.5"></path>
        <path d="M1262.97 495.47L1262.97 495.47" stroke="rgba(42, 17, 68, 1)" stroke-width="1.5"></path>
        <path d="M1262.97 495.47L1422.4 491.98" stroke="rgba(42, 17, 68, 1)" stroke-width="1.5"></path>
        <path d="M1262.97 495.47L1289.07 679.62" stroke="rgba(42, 17, 68, 1)" stroke-width="1.5"></path>
        <path d="M1262.97 495.47L1000.45 513.28" stroke="rgba(42, 17, 68, 1)" stroke-width="1.5"></path>
        <path d="M1289.07 679.62L1289.07 679.62" stroke="rgba(42, 17, 68, 1)" stroke-width="1.5"></path>
        <path d="M1289.07 679.62L1440.87 701.29" stroke="rgba(42, 17, 68, 1)" stroke-width="1.5"></path>
        <path d="M1407.18 78.85L1407.18 78.85" stroke="rgba(42, 17, 68, 1)" stroke-width="1.5"></path>
        <path d="M1407.18 78.85L1439.13 231.68" stroke="rgba(42, 17, 68, 1)" stroke-width="1.5"></path>
        <path d="M1407.18 78.85L1598.45 38.37" stroke="rgba(42, 17, 68, 1)" stroke-width="1.5"></path>
        <path d="M1407.18 78.85L1262.27 215.76" stroke="rgba(42, 17, 68, 1)" stroke-width="1.5"></path>
        <path d="M1407.18 78.85L1586.5 216.36" stroke="rgba(42, 17, 68, 1)" stroke-width="1.5"></path>
        <path d="M1439.13 231.68L1439.13 231.68" stroke="rgba(42, 17, 68, 1)" stroke-width="1.5"></path>
        <path d="M1439.13 231.68L1586.5 216.36" stroke="rgba(42, 17, 68, 1)" stroke-width="1.5"></path>
        <path d="M1439.13 231.68L1544.29 357.82" stroke="rgba(42, 17, 68, 1)" stroke-width="1.5"></path>
        <path d="M1439.13 231.68L1262.27 215.76" stroke="rgba(42, 17, 68, 1)" stroke-width="1.5"></path>
        <path d="M1439.13 231.68L1276.52 88.37" stroke="rgba(42, 17, 68, 1)" stroke-width="1.5"></path>
        <path d="M1439.13 231.68L1598.45 38.37" stroke="rgba(42, 17, 68, 1)" stroke-width="1.5"></path>
        <path d="M1422.4 491.98L1422.4 491.98" stroke="rgba(42, 17, 68, 1)" stroke-width="1.5"></path>
        <path d="M1422.4 491.98L1570.28 520.51" stroke="rgba(42, 17, 68, 1)" stroke-width="1.5"></path>
        <path d="M1440.87 701.29L1440.87 701.29" stroke="rgba(42, 17, 68, 1)" stroke-width="1.5"></path>
        <path d="M1440.87 701.29L1550.86 671.52" stroke="rgba(42, 17, 68, 1)" stroke-width="1.5"></path>
        <path d="M1598.45 38.37L1598.45 38.37" stroke="rgba(42, 17, 68, 1)" stroke-width="1.5"></path>
        <path d="M1598.45 38.37L1586.5 216.36" stroke="rgba(42, 17, 68, 1)" stroke-width="1.5"></path>
        <path d="M1598.45 38.37L1544.29 357.82" stroke="rgba(42, 17, 68, 1)" stroke-width="1.5"></path>
        <path d="M1598.45 38.37L1276.52 88.37" stroke="rgba(42, 17, 68, 1)" stroke-width="1.5"></path>
        <path d="M1598.45 38.37L1256.34 -65.1" stroke="rgba(42, 17, 68, 1)" stroke-width="1.5"></path>
        <path d="M1586.5 216.36L1586.5 216.36" stroke="rgba(42, 17, 68, 1)" stroke-width="1.5"></path>
        <path d="M1586.5 216.36L1544.29 357.82" stroke="rgba(42, 17, 68, 1)" stroke-width="1.5"></path>
        <path d="M1544.29 357.82L1544.29 357.82" stroke="rgba(42, 17, 68, 1)" stroke-width="1.5"></path>
        <path d="M1544.29 357.82L1570.28 520.51" stroke="rgba(42, 17, 68, 1)" stroke-width="1.5"></path>
        <path d="M1544.29 357.82L1422.4 491.98" stroke="rgba(42, 17, 68, 1)" stroke-width="1.5"></path>
        <path d="M1544.29 357.82L1407.18 78.85" stroke="rgba(42, 17, 68, 1)" stroke-width="1.5"></path>
        <path d="M1570.28 520.51L1570.28 520.51" stroke="rgba(42, 17, 68, 1)" stroke-width="1.5"></path>
        <path d="M1570.28 520.51L1550.86 671.52" stroke="rgba(42, 17, 68, 1)" stroke-width="1.5"></path>
        <path d="M1550.86 671.52L1550.86 671.52" stroke="rgba(42, 17, 68, 1)" stroke-width="1.5"></path>
        <path d="M1550.86 671.52L1422.4 491.98" stroke="rgba(42, 17, 68, 1)" stroke-width="1.5"></path>
        <path d="M1550.86 671.52L1289.07 679.62" stroke="rgba(42, 17, 68, 1)" stroke-width="1.5"></path>
        <circle r="5" cx="-101.25" cy="556.37" fill="rgba(42, 17, 68, 1)"></circle>
        <circle r="5" cx="-100.44" cy="702.49" fill="rgba(42, 17, 68, 1)"></circle>
        <circle r="5" cx="91.21" cy="493.99" fill="rgba(42, 17, 68, 1)"></circle>
        <circle r="5" cx="249.74" cy="372.57" fill="rgba(42, 17, 68, 1)"></circle>
        <circle r="5" cx="239.4" cy="532.88" fill="rgba(42, 17, 68, 1)"></circle>
        <circle r="5" cx="248.78" cy="673.89" fill="rgba(42, 17, 68, 1)"></circle>
        <circle r="5" cx="409.73" cy="378.96" fill="rgba(42, 17, 68, 1)"></circle>
        <circle r="5" cx="382.49" cy="511.78" fill="rgba(42, 17, 68, 1)"></circle>
        <circle r="5" cx="356.73" cy="660.89" fill="rgba(42, 17, 68, 1)"></circle>
        <circle r="5" cx="540.5" cy="342.09" fill="rgba(42, 17, 68, 1)"></circle>
        <circle r="5" cx="532.55" cy="680.06" fill="rgba(42, 17, 68, 1)"></circle>
        <circle r="5" cx="691.25" cy="354.11" fill="rgba(42, 17, 68, 1)"></circle>
        <circle r="5" cx="648.22" cy="498.24" fill="rgba(42, 17, 68, 1)"></circle>
        <circle r="5" cx="649.49" cy="694.98" fill="rgba(42, 17, 68, 1)"></circle>
        <circle r="5" cx="813.18" cy="195.28" fill="rgba(42, 17, 68, 1)"></circle>
        <circle r="5" cx="794.71" cy="393.05" fill="rgba(42, 17, 68, 1)"></circle>
        <circle r="5" cx="813.88" cy="493.54" fill="rgba(42, 17, 68, 1)"></circle>
        <circle r="5" cx="840.18" cy="661.75" fill="rgba(42, 17, 68, 1)"></circle>
        <circle r="5" cx="1007.59" cy="-99.95" fill="rgba(42, 17, 68, 1)"></circle>
        <circle r="5" cx="940.69" cy="62.09" fill="rgba(42, 17, 68, 1)"></circle>
        <circle r="5" cx="993.14" cy="261.54" fill="rgba(42, 17, 68, 1)"></circle>
        <circle r="5" cx="969.36" cy="350.86" fill="rgba(42, 17, 68, 1)"></circle>
        <circle r="5" cx="1000.45" cy="513.28" fill="rgba(42, 17, 68, 1)"></circle>
        <circle r="5" cx="939.03" cy="694.01" fill="rgba(42, 17, 68, 1)"></circle>
        <circle r="5" cx="1147.69" cy="-37.57" fill="rgba(42, 17, 68, 1)"></circle>
        <circle r="5" cx="1152.49" cy="84.13" fill="rgba(42, 17, 68, 1)"></circle>
        <circle r="5" cx="1117.06" cy="250.73" fill="rgba(42, 17, 68, 1)"></circle>
        <circle r="5" cx="1158.47" cy="357.86" fill="rgba(42, 17, 68, 1)"></circle>
        <circle r="5" cx="1101.67" cy="649.67" fill="rgba(42, 17, 68, 1)"></circle>
        <circle r="5" cx="1256.34" cy="-65.1" fill="rgba(42, 17, 68, 1)"></circle>
        <circle r="5" cx="1276.52" cy="88.37" fill="rgba(42, 17, 68, 1)"></circle>
        <circle r="5" cx="1262.27" cy="215.76" fill="rgba(42, 17, 68, 1)"></circle>
        <circle r="5" cx="1262.97" cy="495.47" fill="rgba(42, 17, 68, 1)"></circle>
        <circle r="5" cx="1289.07" cy="679.62" fill="rgba(42, 17, 68, 1)"></circle>
        <circle r="5" cx="1407.18" cy="78.85" fill="rgba(42, 17, 68, 1)"></circle>
        <circle r="5" cx="1439.13" cy="231.68" fill="rgba(42, 17, 68, 1)"></circle>
        <circle r="5" cx="1422.4" cy="491.98" fill="rgba(42, 17, 68, 1)"></circle>
        <circle r="5" cx="1440.87" cy="701.29" fill="rgba(42, 17, 68, 1)"></circle>
        <circle r="5" cx="1598.45" cy="38.37" fill="rgba(42, 17, 68, 1)"></circle>
        <circle r="5" cx="1586.5" cy="216.36" fill="rgba(42, 17, 68, 1)"></circle>
        <circle r="5" cx="1544.29" cy="357.82" fill="rgba(42, 17, 68, 1)"></circle>
        <circle r="5" cx="1570.28" cy="520.51" fill="rgba(42, 17, 68, 1)"></circle>
        <circle r="5" cx="1550.86" cy="671.52" fill="rgba(42, 17, 68, 1)"></circle>
        <path d="M97.22 678.62L97.22 678.62" stroke="hsl(309.9, 88.9%, 65.5%)" stroke-width="1.5"></path>
        <path d="M97.22 678.62L209.35 694.66" stroke="hsl(309.9, 88.9%, 65.5%)" stroke-width="1.5"></path>
        <path d="M97.22 678.62L52.14 517.49" stroke="hsl(309.9, 88.9%, 65.5%)" stroke-width="1.5"></path>
        <path d="M97.22 678.62L204 535.8" stroke="hsl(309.9, 88.9%, 65.5%)" stroke-width="1.5"></path>
        <path d="M97.22 678.62L-109.44 650.14" stroke="hsl(309.9, 88.9%, 65.5%)" stroke-width="1.5"></path>
        <path d="M1088.01 209.29L1088.01 209.29" stroke="hsl(309.9, 88.9%, 65.5%)" stroke-width="1.5"></path>
        <path d="M1088.01 209.29L1154.36 74.2" stroke="hsl(309.9, 88.9%, 65.5%)" stroke-width="1.5"></path>
        <path d="M1088.01 209.29L1238.67 229.22" stroke="hsl(309.9, 88.9%, 65.5%)" stroke-width="1.5"></path>
        <path d="M1088.01 209.29L1091.26 361.34" stroke="hsl(309.9, 88.9%, 65.5%)" stroke-width="1.5"></path>
        <path d="M1088.01 209.29L947.03 377.25" stroke="hsl(309.9, 88.9%, 65.5%)" stroke-width="1.5"></path>
        <path d="M1131.69 490.23L1131.69 490.23" stroke="hsl(309.9, 88.9%, 65.5%)" stroke-width="1.5"></path>
        <path d="M1131.69 490.23L1251.72 536.73" stroke="hsl(309.9, 88.9%, 65.5%)" stroke-width="1.5"></path>
        <path d="M1131.69 490.23L1091.26 361.34" stroke="hsl(309.9, 88.9%, 65.5%)" stroke-width="1.5"></path>
        <path d="M1131.69 490.23L973.76 544.42" stroke="hsl(309.9, 88.9%, 65.5%)" stroke-width="1.5"></path>
        <path d="M1131.69 490.23L1276.38 387.42" stroke="hsl(309.9, 88.9%, 65.5%)" stroke-width="1.5"></path>
        <path d="M1131.69 490.23L1282.17 645.21" stroke="hsl(309.9, 88.9%, 65.5%)" stroke-width="1.5"></path>
        <path d="M1131.69 490.23L947.03 377.25" stroke="hsl(309.9, 88.9%, 65.5%)" stroke-width="1.5"></path>
        <path d="M1135.36 711.74L1135.36 711.74" stroke="hsl(309.9, 88.9%, 65.5%)" stroke-width="1.5"></path>
        <path d="M1135.36 711.74L994.85 678.06" stroke="hsl(309.9, 88.9%, 65.5%)" stroke-width="1.5"></path>
        <path d="M1135.36 711.74L1282.17 645.21" stroke="hsl(309.9, 88.9%, 65.5%)" stroke-width="1.5"></path>
        <path d="M1135.36 711.74L1251.72 536.73" stroke="hsl(309.9, 88.9%, 65.5%)" stroke-width="1.5"></path>
        <path d="M1135.36 711.74L1131.69 490.23" stroke="hsl(309.9, 88.9%, 65.5%)" stroke-width="1.5"></path>
        <path d="M1276.38 387.42L1276.38 387.42" stroke="hsl(309.9, 88.9%, 65.5%)" stroke-width="1.5"></path>
        <path d="M1276.38 387.42L1251.72 536.73" stroke="hsl(309.9, 88.9%, 65.5%)" stroke-width="1.5"></path>
        <path d="M1276.38 387.42L1430.15 341.75" stroke="hsl(309.9, 88.9%, 65.5%)" stroke-width="1.5"></path>
        <path d="M1431.83 -59.29L1431.83 -59.29" stroke="hsl(309.9, 88.9%, 65.5%)" stroke-width="1.5"></path>
        <path d="M1431.83 -59.29L1310.19 -45.89" stroke="hsl(309.9, 88.9%, 65.5%)" stroke-width="1.5"></path>
        <path d="M1431.83 -59.29L1404.64 80.48" stroke="hsl(309.9, 88.9%, 65.5%)" stroke-width="1.5"></path>
        <path d="M1454.29 561.52L1454.29 561.52" stroke="hsl(309.9, 88.9%, 65.5%)" stroke-width="1.5"></path>
        <path d="M1454.29 561.52L1441.88 644.91" stroke="hsl(309.9, 88.9%, 65.5%)" stroke-width="1.5"></path>
        <path d="M1454.29 561.52L1547.54 544.03" stroke="hsl(309.9, 88.9%, 65.5%)" stroke-width="1.5"></path>
        <path d="M1454.29 561.52L1554.49 673.41" stroke="hsl(309.9, 88.9%, 65.5%)" stroke-width="1.5"></path>
        <path d="M1454.29 561.52L1282.17 645.21" stroke="hsl(309.9, 88.9%, 65.5%)" stroke-width="1.5"></path>
        <path d="M1454.29 561.52L1251.72 536.73" stroke="hsl(309.9, 88.9%, 65.5%)" stroke-width="1.5"></path>
        <path d="M1454.29 561.52L1430.15 341.75" stroke="hsl(309.9, 88.9%, 65.5%)" stroke-width="1.5"></path>
        <path d="M1547.54 544.03L1547.54 544.03" stroke="hsl(309.9, 88.9%, 65.5%)" stroke-width="1.5"></path>
        <path d="M1547.54 544.03L1554.49 673.41" stroke="hsl(309.9, 88.9%, 65.5%)" stroke-width="1.5"></path>
        <path d="M1547.54 544.03L1441.88 644.91" stroke="hsl(309.9, 88.9%, 65.5%)" stroke-width="1.5"></path>
        <path d="M1547.54 544.03L1564.59 368.18" stroke="hsl(309.9, 88.9%, 65.5%)" stroke-width="1.5"></path>
        <path d="M1547.54 544.03L1430.15 341.75" stroke="hsl(309.9, 88.9%, 65.5%)" stroke-width="1.5"></path>
        <path d="M-106.26 524.23L-106.26 524.23" stroke="hsl(309.9, 88.9%, 65.5%)" stroke-width="1.5"></path>
        <path d="M-106.26 524.23L-109.44 650.14" stroke="hsl(309.9, 88.9%, 65.5%)" stroke-width="1.5"></path>
        <path d="M-106.26 524.23L52.14 517.49" stroke="hsl(309.9, 88.9%, 65.5%)" stroke-width="1.5"></path>
        <path d="M-106.26 524.23L97.22 678.62" stroke="hsl(309.9, 88.9%, 65.5%)" stroke-width="1.5"></path>
        <path d="M-109.44 650.14L-109.44 650.14" stroke="hsl(309.9, 88.9%, 65.5%)" stroke-width="1.5"></path>
        <path d="M-109.44 650.14L52.14 517.49" stroke="hsl(309.9, 88.9%, 65.5%)" stroke-width="1.5"></path>
        <path d="M-109.44 650.14L209.35 694.66" stroke="hsl(309.9, 88.9%, 65.5%)" stroke-width="1.5"></path>
        <path d="M-109.44 650.14L204 535.8" stroke="hsl(309.9, 88.9%, 65.5%)" stroke-width="1.5"></path>
        <path d="M-109.44 650.14L363.47 510.29" stroke="hsl(309.9, 88.9%, 65.5%)" stroke-width="1.5"></path>
        <path d="M52.14 517.49L52.14 517.49" stroke="hsl(309.9, 88.9%, 65.5%)" stroke-width="1.5"></path>
        <path d="M52.14 517.49L204 535.8" stroke="hsl(309.9, 88.9%, 65.5%)" stroke-width="1.5"></path>
        <path d="M52.14 517.49L209.35 694.66" stroke="hsl(309.9, 88.9%, 65.5%)" stroke-width="1.5"></path>
        <path d="M204 535.8L204 535.8" stroke="hsl(309.9, 88.9%, 65.5%)" stroke-width="1.5"></path>
        <path d="M204 535.8L209.35 694.66" stroke="hsl(309.9, 88.9%, 65.5%)" stroke-width="1.5"></path>
        <path d="M209.35 694.66L209.35 694.66" stroke="hsl(309.9, 88.9%, 65.5%)" stroke-width="1.5"></path>
        <path d="M209.35 694.66L363.47 510.29" stroke="hsl(309.9, 88.9%, 65.5%)" stroke-width="1.5"></path>
        <path d="M209.35 694.66L510.07 523.33" stroke="hsl(309.9, 88.9%, 65.5%)" stroke-width="1.5"></path>
        <path d="M363.47 510.29L363.47 510.29" stroke="hsl(309.9, 88.9%, 65.5%)" stroke-width="1.5"></path>
        <path d="M363.47 510.29L510.07 523.33" stroke="hsl(309.9, 88.9%, 65.5%)" stroke-width="1.5"></path>
        <path d="M363.47 510.29L204 535.8" stroke="hsl(309.9, 88.9%, 65.5%)" stroke-width="1.5"></path>
        <path d="M510.07 523.33L510.07 523.33" stroke="hsl(309.9, 88.9%, 65.5%)" stroke-width="1.5"></path>
        <path d="M510.07 523.33L556.32 688.97" stroke="hsl(309.9, 88.9%, 65.5%)" stroke-width="1.5"></path>
        <path d="M510.07 523.33L690.04 506.67" stroke="hsl(309.9, 88.9%, 65.5%)" stroke-width="1.5"></path>
        <path d="M510.07 523.33L793.4 506.42" stroke="hsl(309.9, 88.9%, 65.5%)" stroke-width="1.5"></path>
        <path d="M510.07 523.33L204 535.8" stroke="hsl(309.9, 88.9%, 65.5%)" stroke-width="1.5"></path>
        <path d="M556.32 688.97L556.32 688.97" stroke="hsl(309.9, 88.9%, 65.5%)" stroke-width="1.5"></path>
        <path d="M556.32 688.97L690.04 506.67" stroke="hsl(309.9, 88.9%, 65.5%)" stroke-width="1.5"></path>
        <path d="M556.32 688.97L363.47 510.29" stroke="hsl(309.9, 88.9%, 65.5%)" stroke-width="1.5"></path>
        <path d="M556.32 688.97L842.32 674.26" stroke="hsl(309.9, 88.9%, 65.5%)" stroke-width="1.5"></path>
        <path d="M556.32 688.97L793.4 506.42" stroke="hsl(309.9, 88.9%, 65.5%)" stroke-width="1.5"></path>
        <path d="M690.04 506.67L690.04 506.67" stroke="hsl(309.9, 88.9%, 65.5%)" stroke-width="1.5"></path>
        <path d="M690.04 506.67L793.4 506.42" stroke="hsl(309.9, 88.9%, 65.5%)" stroke-width="1.5"></path>
        <path d="M690.04 506.67L858.75 410.33" stroke="hsl(309.9, 88.9%, 65.5%)" stroke-width="1.5"></path>
        <path d="M690.04 506.67L842.32 674.26" stroke="hsl(309.9, 88.9%, 65.5%)" stroke-width="1.5"></path>
        <path d="M690.04 506.67L973.76 544.42" stroke="hsl(309.9, 88.9%, 65.5%)" stroke-width="1.5"></path>
        <path d="M858.75 410.33L858.75 410.33" stroke="hsl(309.9, 88.9%, 65.5%)" stroke-width="1.5"></path>
        <path d="M858.75 410.33L947.03 377.25" stroke="hsl(309.9, 88.9%, 65.5%)" stroke-width="1.5"></path>
        <path d="M858.75 410.33L793.4 506.42" stroke="hsl(309.9, 88.9%, 65.5%)" stroke-width="1.5"></path>
        <path d="M793.4 506.42L793.4 506.42" stroke="hsl(309.9, 88.9%, 65.5%)" stroke-width="1.5"></path>
        <path d="M793.4 506.42L842.32 674.26" stroke="hsl(309.9, 88.9%, 65.5%)" stroke-width="1.5"></path>
        <path d="M793.4 506.42L973.76 544.42" stroke="hsl(309.9, 88.9%, 65.5%)" stroke-width="1.5"></path>
        <path d="M842.32 674.26L842.32 674.26" stroke="hsl(309.9, 88.9%, 65.5%)" stroke-width="1.5"></path>
        <path d="M842.32 674.26L994.85 678.06" stroke="hsl(309.9, 88.9%, 65.5%)" stroke-width="1.5"></path>
        <path d="M842.32 674.26L973.76 544.42" stroke="hsl(309.9, 88.9%, 65.5%)" stroke-width="1.5"></path>
        <path d="M947.03 377.25L947.03 377.25" stroke="hsl(309.9, 88.9%, 65.5%)" stroke-width="1.5"></path>
        <path d="M947.03 377.25L1091.26 361.34" stroke="hsl(309.9, 88.9%, 65.5%)" stroke-width="1.5"></path>
        <path d="M947.03 377.25L973.76 544.42" stroke="hsl(309.9, 88.9%, 65.5%)" stroke-width="1.5"></path>
        <path d="M973.76 544.42L973.76 544.42" stroke="hsl(309.9, 88.9%, 65.5%)" stroke-width="1.5"></path>
        <path d="M973.76 544.42L994.85 678.06" stroke="hsl(309.9, 88.9%, 65.5%)" stroke-width="1.5"></path>
        <path d="M994.85 678.06L994.85 678.06" stroke="hsl(309.9, 88.9%, 65.5%)" stroke-width="1.5"></path>
        <path d="M1154.36 74.2L1154.36 74.2" stroke="hsl(309.9, 88.9%, 65.5%)" stroke-width="1.5"></path>
        <path d="M1154.36 74.2L1308.13 89.6" stroke="hsl(309.9, 88.9%, 65.5%)" stroke-width="1.5"></path>
        <path d="M1154.36 74.2L1238.67 229.22" stroke="hsl(309.9, 88.9%, 65.5%)" stroke-width="1.5"></path>
        <path d="M1154.36 74.2L1310.19 -45.89" stroke="hsl(309.9, 88.9%, 65.5%)" stroke-width="1.5"></path>
        <path d="M1154.36 74.2L1404.64 80.48" stroke="hsl(309.9, 88.9%, 65.5%)" stroke-width="1.5"></path>
        <path d="M1154.36 74.2L1091.26 361.34" stroke="hsl(309.9, 88.9%, 65.5%)" stroke-width="1.5"></path>
        <path d="M1091.26 361.34L1091.26 361.34" stroke="hsl(309.9, 88.9%, 65.5%)" stroke-width="1.5"></path>
        <path d="M1091.26 361.34L1276.38 387.42" stroke="hsl(309.9, 88.9%, 65.5%)" stroke-width="1.5"></path>
        <path d="M1091.26 361.34L1238.67 229.22" stroke="hsl(309.9, 88.9%, 65.5%)" stroke-width="1.5"></path>
        <path d="M1310.19 -45.89L1310.19 -45.89" stroke="hsl(309.9, 88.9%, 65.5%)" stroke-width="1.5"></path>
        <path d="M1310.19 -45.89L1308.13 89.6" stroke="hsl(309.9, 88.9%, 65.5%)" stroke-width="1.5"></path>
        <path d="M1310.19 -45.89L1404.64 80.48" stroke="hsl(309.9, 88.9%, 65.5%)" stroke-width="1.5"></path>
        <path d="M1308.13 89.6L1308.13 89.6" stroke="hsl(309.9, 88.9%, 65.5%)" stroke-width="1.5"></path>
        <path d="M1308.13 89.6L1404.64 80.48" stroke="hsl(309.9, 88.9%, 65.5%)" stroke-width="1.5"></path>
        <path d="M1308.13 89.6L1238.67 229.22" stroke="hsl(309.9, 88.9%, 65.5%)" stroke-width="1.5"></path>
        <path d="M1308.13 89.6L1456.01 199.4" stroke="hsl(309.9, 88.9%, 65.5%)" stroke-width="1.5"></path>
        <path d="M1238.67 229.22L1238.67 229.22" stroke="hsl(309.9, 88.9%, 65.5%)" stroke-width="1.5"></path>
        <path d="M1238.67 229.22L1276.38 387.42" stroke="hsl(309.9, 88.9%, 65.5%)" stroke-width="1.5"></path>
        <path d="M1251.72 536.73L1251.72 536.73" stroke="hsl(309.9, 88.9%, 65.5%)" stroke-width="1.5"></path>
        <path d="M1251.72 536.73L1282.17 645.21" stroke="hsl(309.9, 88.9%, 65.5%)" stroke-width="1.5"></path>
        <path d="M1282.17 645.21L1282.17 645.21" stroke="hsl(309.9, 88.9%, 65.5%)" stroke-width="1.5"></path>
        <path d="M1282.17 645.21L1441.88 644.91" stroke="hsl(309.9, 88.9%, 65.5%)" stroke-width="1.5"></path>
        <path d="M1282.17 645.21L1276.38 387.42" stroke="hsl(309.9, 88.9%, 65.5%)" stroke-width="1.5"></path>
        <path d="M1404.64 80.48L1404.64 80.48" stroke="hsl(309.9, 88.9%, 65.5%)" stroke-width="1.5"></path>
        <path d="M1404.64 80.48L1456.01 199.4" stroke="hsl(309.9, 88.9%, 65.5%)" stroke-width="1.5"></path>
        <path d="M1456.01 199.4L1456.01 199.4" stroke="hsl(309.9, 88.9%, 65.5%)" stroke-width="1.5"></path>
        <path d="M1456.01 199.4L1430.15 341.75" stroke="hsl(309.9, 88.9%, 65.5%)" stroke-width="1.5"></path>
        <path d="M1456.01 199.4L1564.59 368.18" stroke="hsl(309.9, 88.9%, 65.5%)" stroke-width="1.5"></path>
        <path d="M1456.01 199.4L1611.66 53.51" stroke="hsl(309.9, 88.9%, 65.5%)" stroke-width="1.5"></path>
        <path d="M1430.15 341.75L1430.15 341.75" stroke="hsl(309.9, 88.9%, 65.5%)" stroke-width="1.5"></path>
        <path d="M1430.15 341.75L1564.59 368.18" stroke="hsl(309.9, 88.9%, 65.5%)" stroke-width="1.5"></path>
        <path d="M1441.88 644.91L1441.88 644.91" stroke="hsl(309.9, 88.9%, 65.5%)" stroke-width="1.5"></path>
        <path d="M1441.88 644.91L1554.49 673.41" stroke="hsl(309.9, 88.9%, 65.5%)" stroke-width="1.5"></path>
        <path d="M1441.88 644.91L1251.72 536.73" stroke="hsl(309.9, 88.9%, 65.5%)" stroke-width="1.5"></path>
        <path d="M1595.89 -81.53L1595.89 -81.53" stroke="hsl(309.9, 88.9%, 65.5%)" stroke-width="1.5"></path>
        <path d="M1595.89 -81.53L1611.66 53.51" stroke="hsl(309.9, 88.9%, 65.5%)" stroke-width="1.5"></path>
        <path d="M1595.89 -81.53L1431.83 -59.29" stroke="hsl(309.9, 88.9%, 65.5%)" stroke-width="1.5"></path>
        <path d="M1595.89 -81.53L1404.64 80.48" stroke="hsl(309.9, 88.9%, 65.5%)" stroke-width="1.5"></path>
        <path d="M1595.89 -81.53L1310.19 -45.89" stroke="hsl(309.9, 88.9%, 65.5%)" stroke-width="1.5"></path>
        <path d="M1595.89 -81.53L1456.01 199.4" stroke="hsl(309.9, 88.9%, 65.5%)" stroke-width="1.5"></path>
        <path d="M1611.66 53.51L1611.66 53.51" stroke="hsl(309.9, 88.9%, 65.5%)" stroke-width="1.5"></path>
        <path d="M1611.66 53.51L1404.64 80.48" stroke="hsl(309.9, 88.9%, 65.5%)" stroke-width="1.5"></path>
        <path d="M1611.66 53.51L1431.83 -59.29" stroke="hsl(309.9, 88.9%, 65.5%)" stroke-width="1.5"></path>
        <path d="M1611.66 53.51L1308.13 89.6" stroke="hsl(309.9, 88.9%, 65.5%)" stroke-width="1.5"></path>
        <path d="M1611.66 53.51L1310.19 -45.89" stroke="hsl(309.9, 88.9%, 65.5%)" stroke-width="1.5"></path>
        <path d="M1564.59 368.18L1564.59 368.18" stroke="hsl(309.9, 88.9%, 65.5%)" stroke-width="1.5"></path>
        <path d="M1564.59 368.18L1454.29 561.52" stroke="hsl(309.9, 88.9%, 65.5%)" stroke-width="1.5"></path>
        <path d="M1554.49 673.41L1554.49 673.41" stroke="hsl(309.9, 88.9%, 65.5%)" stroke-width="1.5"></path>
        <path d="M1554.49 673.41L1282.17 645.21" stroke="hsl(309.9, 88.9%, 65.5%)" stroke-width="1.5"></path>
        <circle r="25" cx="97.22" cy="678.62" fill="url(#SvgjsRadialGradient1007)"></circle>
        <circle r="25" cx="1088.01" cy="209.29" fill="url(#SvgjsRadialGradient1007)"></circle>
        <circle r="25" cx="1131.69" cy="490.23" fill="url(#SvgjsRadialGradient1007)"></circle>
        <circle r="25" cx="1135.36" cy="711.74" fill="url(#SvgjsRadialGradient1007)"></circle>
        <circle r="25" cx="1276.38" cy="387.42" fill="url(#SvgjsRadialGradient1007)"></circle>
        <circle r="25" cx="1431.83" cy="-59.29" fill="url(#SvgjsRadialGradient1007)"></circle>
        <circle r="25" cx="1454.29" cy="561.52" fill="url(#SvgjsRadialGradient1007)"></circle>
        <circle r="25" cx="1547.54" cy="544.03" fill="url(#SvgjsRadialGradient1007)"></circle>
        <circle r="5" cx="-106.26" cy="524.23" fill="#f888e6"></circle>
        <circle r="5" cx="-109.44" cy="650.14" fill="#f888e6"></circle>
        <circle r="5" cx="52.14" cy="517.49" fill="#f888e6"></circle>
        <circle r="5" cx="204" cy="535.8" fill="#f888e6"></circle>
        <circle r="5" cx="209.35" cy="694.66" fill="#f888e6"></circle>
        <circle r="5" cx="363.47" cy="510.29" fill="#f888e6"></circle>
        <circle r="5" cx="510.07" cy="523.33" fill="#f888e6"></circle>
        <circle r="5" cx="556.32" cy="688.97" fill="#f888e6"></circle>
        <circle r="5" cx="690.04" cy="506.67" fill="#f888e6"></circle>
        <circle r="5" cx="858.75" cy="410.33" fill="#f888e6"></circle>
        <circle r="5" cx="793.4" cy="506.42" fill="#f888e6"></circle>
        <circle r="5" cx="842.32" cy="674.26" fill="#f888e6"></circle>
        <circle r="5" cx="947.03" cy="377.25" fill="#f888e6"></circle>
        <circle r="5" cx="973.76" cy="544.42" fill="#f888e6"></circle>
        <circle r="5" cx="994.85" cy="678.06" fill="#f888e6"></circle>
        <circle r="5" cx="1154.36" cy="74.2" fill="#f888e6"></circle>
        <circle r="5" cx="1091.26" cy="361.34" fill="#f888e6"></circle>
        <circle r="5" cx="1310.19" cy="-45.89" fill="#f888e6"></circle>
        <circle r="5" cx="1308.13" cy="89.6" fill="#f888e6"></circle>
        <circle r="5" cx="1238.67" cy="229.22" fill="#f888e6"></circle>
        <circle r="5" cx="1251.72" cy="536.73" fill="#f888e6"></circle>
        <circle r="5" cx="1282.17" cy="645.21" fill="#f888e6"></circle>
        <circle r="5" cx="1404.64" cy="80.48" fill="#f888e6"></circle>
        <circle r="5" cx="1456.01" cy="199.4" fill="#f888e6"></circle>
        <circle r="5" cx="1430.15" cy="341.75" fill="#f888e6"></circle>
        <circle r="5" cx="1441.88" cy="644.91" fill="#f888e6"></circle>
        <circle r="5" cx="1595.89" cy="-81.53" fill="#f888e6"></circle>
        <circle r="5" cx="1611.66" cy="53.51" fill="#f888e6"></circle>
        <circle r="5" cx="1564.59" cy="368.18" fill="#f888e6"></circle>
        <circle r="5" cx="1554.49" cy="673.41" fill="#f888e6"></circle>
    </g>
    <defs>
        <mask id="SvgjsMask1006">
            <rect width="1440" height="560" fill="#ffffff"></rect>
        </mask>
        <radialGradient id="SvgjsRadialGradient1007">
            <stop stop-color="#ffffff" offset="0.1"></stop>
            <stop stop-color="rgba(241, 16, 204, 1)" offset="0.2"></stop>
            <stop stop-color="rgba(241, 16, 204, 0)" offset="1"></stop>
        </radialGradient>
    </defs>
</svg>