<svg xmlns="http://www.w3.org/2000/svg" xmlns:xlink="http://www.w3.org/1999/xlink" style="margin:auto;background:#f1f2f3;display:block;z-index:1;position:relative" width="1920" height="937" preserveAspectRatio="xMidYMid" viewBox="0 0 1920 937">
        <g transform="translate(960,468.5) scale(1,1) translate(-960,-468.5)"><defs>
        <linearGradient id="lg-0.3361058880821024" x1="0" x2="0" y1="0" y2="1">
          <stop stop-color="#2a1144" offset="0.3"></stop>
          <stop stop-color="#98027f" offset="0.6499999999999999"></stop>
          <stop stop-color="#98027f" offset="1"></stop>
        </linearGradient>
        <linearGradient id="fg-lg-0.3361058880821024" x1="0" x2="0" y1="0" y2="1">
          <stop stop-color="#2a1144" stop-opacity="1" offset="0.3"></stop>
          <stop stop-color="#98027f" stop-opacity="0.66" offset="0.6499999999999999"></stop>
          <stop stop-color="#98027f" stop-opacity="0" offset="1"></stop>
        </linearGradient>
        <style type="text/css">
          path { fill: none; stroke: #2a1144; stroke-width: 2px }
        </style>
        </defs>
        <rect x="0" y="0" width="1920" height="937" fill="url(#lg-0.3361058880821024)"></rect><path d="M0 281.09999999999997 L-13440 937"></path><path d="M14.76923076923077 281.09999999999997 L-13218.461538461539 937"></path><path d="M29.53846153846154 281.09999999999997 L-12996.923076923076 937"></path><path d="M44.30769230769231 281.09999999999997 L-12775.384615384615 937"></path><path d="M59.07692307692308 281.09999999999997 L-12553.846153846154 937"></path><path d="M73.84615384615384 281.09999999999997 L-12332.307692307691 937"></path><path d="M88.61538461538461 281.09999999999997 L-12110.76923076923 937"></path><path d="M103.38461538461539 281.09999999999997 L-11889.23076923077 937"></path><path d="M118.15384615384616 281.09999999999997 L-11667.692307692309 937"></path><path d="M132.92307692307693 281.09999999999997 L-11446.153846153846 937"></path><path d="M147.69230769230768 281.09999999999997 L-11224.615384615385 937"></path><path d="M162.46153846153845 281.09999999999997 L-11003.076923076922 937"></path><path d="M177.23076923076923 281.09999999999997 L-10781.538461538461 937"></path><path d="M192 281.09999999999997 L-10560 937"></path><path d="M206.76923076923077 281.09999999999997 L-10338.461538461539 937"></path><path d="M221.53846153846155 281.09999999999997 L-10116.923076923078 937"></path><path d="M236.30769230769232 281.09999999999997 L-9895.384615384615 937"></path><path d="M251.07692307692307 281.09999999999997 L-9673.846153846154 937"></path><path d="M265.84615384615387 281.09999999999997 L-9452.307692307691 937"></path><path d="M280.61538461538464 281.09999999999997 L-9230.76923076923 937"></path><path d="M295.38461538461536 281.09999999999997 L-9009.23076923077 937"></path><path d="M310.15384615384613 281.09999999999997 L-8787.692307692309 937"></path><path d="M324.9230769230769 281.09999999999997 L-8566.153846153846 937"></path><path d="M339.6923076923077 281.09999999999997 L-8344.615384615385 937"></path><path d="M354.46153846153845 281.09999999999997 L-8123.076923076923 937"></path><path d="M369.2307692307692 281.09999999999997 L-7901.538461538462 937"></path><path d="M384 281.09999999999997 L-7680 937"></path><path d="M398.7692307692308 281.09999999999997 L-7458.461538461538 937"></path><path d="M413.53846153846155 281.09999999999997 L-7236.923076923077 937"></path><path d="M428.3076923076923 281.09999999999997 L-7015.384615384615 937"></path><path d="M443.0769230769231 281.09999999999997 L-6793.846153846154 937"></path><path d="M457.84615384615387 281.09999999999997 L-6572.307692307692 937"></path><path d="M472.61538461538464 281.09999999999997 L-6350.7692307692305 937"></path><path d="M487.38461538461536 281.09999999999997 L-6129.2307692307695 937"></path><path d="M502.15384615384613 281.09999999999997 L-5907.692307692308 937"></path><path d="M516.9230769230769 281.09999999999997 L-5686.153846153846 937"></path><path d="M531.6923076923077 281.09999999999997 L-5464.615384615385 937"></path><path d="M546.4615384615385 281.09999999999997 L-5243.076923076924 937"></path><path d="M561.2307692307693 281.09999999999997 L-5021.538461538461 937"></path><path d="M576 281.09999999999997 L-4800 937"></path><path d="M590.7692307692307 281.09999999999997 L-4578.461538461539 937"></path><path d="M605.5384615384615 281.09999999999997 L-4356.923076923076 937"></path><path d="M620.3076923076923 281.09999999999997 L-4135.384615384615 937"></path><path d="M635.0769230769231 281.09999999999997 L-3913.8461538461543 937"></path><path d="M649.8461538461538 281.09999999999997 L-3692.3076923076915 937"></path><path d="M664.6153846153846 281.09999999999997 L-3470.7692307692305 937"></path><path d="M679.3846153846154 281.09999999999997 L-3249.2307692307695 937"></path><path d="M694.1538461538462 281.09999999999997 L-3027.6923076923085 937"></path><path d="M708.9230769230769 281.09999999999997 L-2806.1538461538457 937"></path><path d="M723.6923076923077 281.09999999999997 L-2584.6153846153848 937"></path><path d="M738.4615384615385 281.09999999999997 L-2363.076923076924 937"></path><path d="M753.2307692307693 281.09999999999997 L-2141.538461538461 937"></path><path d="M768 281.09999999999997 L-1920 937"></path><path d="M782.7692307692307 281.09999999999997 L-1698.461538461539 937"></path><path d="M797.5384615384615 281.09999999999997 L-1476.9230769230762 937"></path><path d="M812.3076923076923 281.09999999999997 L-1255.3846153846152 937"></path><path d="M827.0769230769231 281.09999999999997 L-1033.8461538461543 937"></path><path d="M841.8461538461538 281.09999999999997 L-812.3076923076915 937"></path><path d="M856.6153846153846 281.09999999999997 L-590.7692307692305 937"></path><path d="M871.3846153846154 281.09999999999997 L-369.2307692307695 937"></path><path d="M886.1538461538462 281.09999999999997 L-147.69230769230853 937"></path><path d="M900.9230769230769 281.09999999999997 L73.84615384615427 937"></path><path d="M915.6923076923077 281.09999999999997 L295.38461538461524 937"></path><path d="M930.4615384615385 281.09999999999997 L516.9230769230762 937"></path><path d="M945.2307692307693 281.09999999999997 L738.461538461539 937"></path><path d="M960 281.09999999999997 L960 937"></path><path d="M974.7692307692307 281.09999999999997 L1181.538461538461 937"></path><path d="M989.5384615384615 281.09999999999997 L1403.0769230769238 937"></path><path d="M1004.3076923076923 281.09999999999997 L1624.6153846153848 937"></path><path d="M1019.0769230769231 281.09999999999997 L1846.1538461538457 937"></path><path d="M1033.8461538461538 281.09999999999997 L2067.6923076923085 937"></path><path d="M1048.6153846153845 281.09999999999997 L2289.2307692307695 937"></path><path d="M1063.3846153846155 281.09999999999997 L2510.7692307692305 937"></path><path d="M1078.1538461538462 281.09999999999997 L2732.3076923076915 937"></path><path d="M1092.923076923077 281.09999999999997 L2953.8461538461524 937"></path><path d="M1107.6923076923076 281.09999999999997 L3175.384615384617 937"></path><path d="M1122.4615384615386 281.09999999999997 L3396.923076923078 937"></path><path d="M1137.2307692307693 281.09999999999997 L3618.461538461539 937"></path><path d="M1152 281.09999999999997 L3840 937"></path><path d="M1166.7692307692307 281.09999999999997 L4061.538461538461 937"></path><path d="M1181.5384615384614 281.09999999999997 L4283.076923076922 937"></path><path d="M1196.3076923076924 281.09999999999997 L4504.615384615383 937"></path><path d="M1211.076923076923 281.09999999999997 L4726.153846153848 937"></path><path d="M1225.8461538461538 281.09999999999997 L4947.6923076923085 937"></path><path d="M1240.6153846153845 281.09999999999997 L5169.2307692307695 937"></path><path d="M1255.3846153846155 281.09999999999997 L5390.7692307692305 937"></path><path d="M1270.1538461538462 281.09999999999997 L5612.3076923076915 937"></path><path d="M1284.923076923077 281.09999999999997 L5833.846153846152 937"></path><path d="M1299.6923076923076 281.09999999999997 L6055.384615384617 937"></path><path d="M1314.4615384615386 281.09999999999997 L6276.923076923078 937"></path><path d="M1329.2307692307693 281.09999999999997 L6498.461538461539 937"></path><path d="M1344 281.09999999999997 L6720 937"></path><path d="M1358.7692307692307 281.09999999999997 L6941.538461538461 937"></path><path d="M1373.5384615384614 281.09999999999997 L7163.076923076922 937"></path><path d="M1388.3076923076924 281.09999999999997 L7384.615384615383 937"></path><path d="M1403.076923076923 281.09999999999997 L7606.153846153848 937"></path><path d="M1417.8461538461538 281.09999999999997 L7827.6923076923085 937"></path><path d="M1432.6153846153845 281.09999999999997 L8049.2307692307695 937"></path><path d="M1447.3846153846155 281.09999999999997 L8270.76923076923 937"></path><path d="M1462.1538461538462 281.09999999999997 L8492.307692307691 937"></path><path d="M1476.923076923077 281.09999999999997 L8713.846153846152 937"></path><path d="M1491.6923076923076 281.09999999999997 L8935.384615384617 937"></path><path d="M1506.4615384615386 281.09999999999997 L9156.923076923078 937"></path><path d="M1521.2307692307693 281.09999999999997 L9378.461538461539 937"></path><path d="M1536 281.09999999999997 L9600 937"></path><path d="M1550.7692307692307 281.09999999999997 L9821.538461538461 937"></path><path d="M1565.5384615384614 281.09999999999997 L10043.076923076922 937"></path><path d="M1580.3076923076924 281.09999999999997 L10264.615384615383 937"></path><path d="M1595.076923076923 281.09999999999997 L10486.153846153848 937"></path><path d="M1609.8461538461538 281.09999999999997 L10707.692307692309 937"></path><path d="M1624.6153846153845 281.09999999999997 L10929.23076923077 937"></path><path d="M1639.3846153846155 281.09999999999997 L11150.76923076923 937"></path><path d="M1654.1538461538462 281.09999999999997 L11372.307692307691 937"></path><path d="M1668.923076923077 281.09999999999997 L11593.846153846152 937"></path><path d="M1683.6923076923076 281.09999999999997 L11815.384615384617 937"></path><path d="M1698.4615384615386 281.09999999999997 L12036.923076923078 937"></path><path d="M1713.2307692307693 281.09999999999997 L12258.461538461539 937"></path><path d="M1728 281.09999999999997 L12480 937"></path><path d="M1742.7692307692307 281.09999999999997 L12701.538461538461 937"></path><path d="M1757.5384615384614 281.09999999999997 L12923.076923076922 937"></path><path d="M1772.3076923076924 281.09999999999997 L13144.615384615383 937"></path><path d="M1787.076923076923 281.09999999999997 L13366.153846153848 937"></path><path d="M1801.8461538461538 281.09999999999997 L13587.692307692309 937"></path><path d="M1816.6153846153845 281.09999999999997 L13809.23076923077 937"></path><path d="M1831.3846153846155 281.09999999999997 L14030.76923076923 937"></path><path d="M1846.1538461538462 281.09999999999997 L14252.307692307691 937"></path><path d="M1860.923076923077 281.09999999999997 L14473.846153846152 937"></path><path d="M1875.6923076923076 281.09999999999997 L14695.384615384617 937"></path><path d="M1890.4615384615386 281.09999999999997 L14916.923076923078 937"></path><path d="M1905.2307692307693 281.09999999999997 L15138.461538461539 937"></path><path d="M1920 281.09999999999997 L15360 937"></path><g>
        <path d="M0 281.09999999999997 L1920 281.09999999999997"></path>
        <animateTransform attributeName="transform" type="translate" repeatCount="indefinite" calcMode="linear" keyTimes="0;1" values="0 0;0 4.967763313609467" begin="0s" dur="0.8333333333333334s"></animateTransform>
        
        </g><g>
        <path d="M0 286.0677633136094 L1920 286.0677633136094"></path>
        <animateTransform attributeName="transform" type="translate" repeatCount="indefinite" calcMode="linear" keyTimes="0;1" values="0 0;0 9.935526627218934" begin="0s" dur="0.8333333333333334s"></animateTransform>
        
        </g><g>
        <path d="M0 296.0032899408284 L1920 296.0032899408284"></path>
        <animateTransform attributeName="transform" type="translate" repeatCount="indefinite" calcMode="linear" keyTimes="0;1" values="0 0;0 14.903289940828401" begin="0s" dur="0.8333333333333334s"></animateTransform>
        
        </g><g>
        <path d="M0 310.9065798816568 L1920 310.9065798816568"></path>
        <animateTransform attributeName="transform" type="translate" repeatCount="indefinite" calcMode="linear" keyTimes="0;1" values="0 0;0 19.871053254437868" begin="0s" dur="0.8333333333333334s"></animateTransform>
        
        </g><g>
        <path d="M0 330.77763313609466 L1920 330.77763313609466"></path>
        <animateTransform attributeName="transform" type="translate" repeatCount="indefinite" calcMode="linear" keyTimes="0;1" values="0 0;0 24.838816568047335" begin="0s" dur="0.8333333333333334s"></animateTransform>
        
        </g><g>
        <path d="M0 355.616449704142 L1920 355.616449704142"></path>
        <animateTransform attributeName="transform" type="translate" repeatCount="indefinite" calcMode="linear" keyTimes="0;1" values="0 0;0 29.806579881656802" begin="0s" dur="0.8333333333333334s"></animateTransform>
        
        </g><g>
        <path d="M0 385.42302958579876 L1920 385.42302958579876"></path>
        <animateTransform attributeName="transform" type="translate" repeatCount="indefinite" calcMode="linear" keyTimes="0;1" values="0 0;0 34.77434319526627" begin="0s" dur="0.8333333333333334s"></animateTransform>
        
        </g><g>
        <path d="M0 420.19737278106504 L1920 420.19737278106504"></path>
        <animateTransform attributeName="transform" type="translate" repeatCount="indefinite" calcMode="linear" keyTimes="0;1" values="0 0;0 39.742106508875736" begin="0s" dur="0.8333333333333334s"></animateTransform>
        
        </g><g>
        <path d="M0 459.9394792899408 L1920 459.9394792899408"></path>
        <animateTransform attributeName="transform" type="translate" repeatCount="indefinite" calcMode="linear" keyTimes="0;1" values="0 0;0 44.7098698224852" begin="0s" dur="0.8333333333333334s"></animateTransform>
        
        </g><g>
        <path d="M0 504.64934911242597 L1920 504.64934911242597"></path>
        <animateTransform attributeName="transform" type="translate" repeatCount="indefinite" calcMode="linear" keyTimes="0;1" values="0 0;0 49.67763313609467" begin="0s" dur="0.8333333333333334s"></animateTransform>
        
        </g><g>
        <path d="M0 554.3269822485206 L1920 554.3269822485206"></path>
        <animateTransform attributeName="transform" type="translate" repeatCount="indefinite" calcMode="linear" keyTimes="0;1" values="0 0;0 54.64539644970414" begin="0s" dur="0.8333333333333334s"></animateTransform>
        
        </g><g>
        <path d="M0 608.9723786982247 L1920 608.9723786982247"></path>
        <animateTransform attributeName="transform" type="translate" repeatCount="indefinite" calcMode="linear" keyTimes="0;1" values="0 0;0 59.613159763313604" begin="0s" dur="0.8333333333333334s"></animateTransform>
        
        </g><g>
        <path d="M0 668.5855384615384 L1920 668.5855384615384"></path>
        <animateTransform attributeName="transform" type="translate" repeatCount="indefinite" calcMode="linear" keyTimes="0;1" values="0 0;0 64.58092307692307" begin="0s" dur="0.8333333333333334s"></animateTransform>
        
        </g><g>
        <path d="M0 733.1664615384615 L1920 733.1664615384615"></path>
        <animateTransform attributeName="transform" type="translate" repeatCount="indefinite" calcMode="linear" keyTimes="0;1" values="0 0;0 69.54868639053254" begin="0s" dur="0.8333333333333334s"></animateTransform>
        
        </g><g>
        <path d="M0 802.715147928994 L1920 802.715147928994"></path>
        <animateTransform attributeName="transform" type="translate" repeatCount="indefinite" calcMode="linear" keyTimes="0;1" values="0 0;0 74.516449704142" begin="0s" dur="0.8333333333333334s"></animateTransform>
        
        </g><g>
        <path d="M0 877.2315976331361 L1920 877.2315976331361"></path>
        <animateTransform attributeName="transform" type="translate" repeatCount="indefinite" calcMode="linear" keyTimes="0;1" values="0 0;0 79.48421301775147" begin="0s" dur="0.8333333333333334s"></animateTransform>
        
        </g><g>
        <path d="M0 956.7158106508875 L1920 956.7158106508875"></path>
        <animateTransform attributeName="transform" type="translate" repeatCount="indefinite" calcMode="linear" keyTimes="0;1" values="0 0;0 84.45197633136094" begin="0s" dur="0.8333333333333334s"></animateTransform>
        
        </g><rect x="0" y="0" width="1920" height="937" fill="url(#fg-lg-0.3361058880821024)"></rect></g>
        </svg>